<svg width="680" height="404" viewBox="0 0 680 404" xmlns="http://www.w3.org/2000/svg" style="font-family: -apple-system, 'Segoe UI', sans-serif;">
  <style>
    text { fill: #c8c6c2; }
    .title { font-size: 14px; font-weight: 500; }
    .sub { font-size: 12px; fill: #8b9298; }
  </style>
  <rect width="680" height="404" fill="#0f1419" rx="8"/>
  <text class="title" x="340" y="28" text-anchor="middle" fill="#e8e6e3">Sampling methods — 1D comparison (N = 20)</text>
  <text class="title" x="40" y="62" fill="#e8e6e3">SAA — pure Monte Carlo</text>
  <text class="sub" x="40" y="78">Random draws: visible clumps and gaps</text>
  <rect x="40" y="86" width="600" height="30" rx="6" fill="none" stroke="#2d3440" stroke-width="0.5"/>
  <circle cx="423.7" cy="101" r="4.5" fill="#D85A30" opacity="0.85"/>
  <circle cx="55.0" cy="101" r="4.5" fill="#D85A30" opacity="0.85"/>
  <circle cx="205.0" cy="101" r="4.5" fill="#D85A30" opacity="0.85"/>
  <circle cx="173.9" cy="101" r="4.5" fill="#D85A30" opacity="0.85"/>
  <circle cx="481.9" cy="101" r="4.5" fill="#D85A30" opacity="0.85"/>
  <circle cx="446.0" cy="101" r="4.5" fill="#D85A30" opacity="0.85"/>
  <circle cx="575.3" cy="101" r="4.5" fill="#D85A30" opacity="0.85"/>
  <circle cx="92.2" cy="101" r="4.5" fill="#D85A30" opacity="0.85"/>
  <circle cx="293.2" cy="101" r="4.5" fill="#D85A30" opacity="0.85"/>
  <circle cx="57.9" cy="101" r="4.5" fill="#D85A30" opacity="0.85"/>
  <circle cx="171.2" cy="101" r="4.5" fill="#D85A30" opacity="0.85"/>
  <circle cx="343.2" cy="101" r="4.5" fill="#D85A30" opacity="0.85"/>
  <circle cx="55.9" cy="101" r="4.5" fill="#D85A30" opacity="0.85"/>
  <circle cx="159.3" cy="101" r="4.5" fill="#D85A30" opacity="0.85"/>
  <circle cx="429.9" cy="101" r="4.5" fill="#D85A30" opacity="0.85"/>
  <circle cx="367.0" cy="101" r="4.5" fill="#D85A30" opacity="0.85"/>
  <circle cx="172.3" cy="101" r="4.5" fill="#D85A30" opacity="0.85"/>
  <circle cx="393.6" cy="101" r="4.5" fill="#D85A30" opacity="0.85"/>
  <circle cx="525.7" cy="101" r="4.5" fill="#D85A30" opacity="0.85"/>
  <circle cx="43.9" cy="101" r="4.5" fill="#D85A30" opacity="0.85"/>
  <text class="title" x="40" y="148" fill="#e8e6e3">LHS — Latin Hypercube</text>
  <text class="sub" x="40" y="164">One sample per stratum: guaranteed coverage</text>
  <rect x="40" y="172" width="600" height="30" rx="6" fill="none" stroke="#2d3440" stroke-width="0.5"/>
  <line x1="70" y1="176" x2="70" y2="198" stroke="#2d3440" stroke-width="0.5" opacity="0.6"/>
  <line x1="100" y1="176" x2="100" y2="198" stroke="#2d3440" stroke-width="0.5" opacity="0.6"/>
  <line x1="130" y1="176" x2="130" y2="198" stroke="#2d3440" stroke-width="0.5" opacity="0.6"/>
  <line x1="160" y1="176" x2="160" y2="198" stroke="#2d3440" stroke-width="0.5" opacity="0.6"/>
  <line x1="190" y1="176" x2="190" y2="198" stroke="#2d3440" stroke-width="0.5" opacity="0.6"/>
  <line x1="220" y1="176" x2="220" y2="198" stroke="#2d3440" stroke-width="0.5" opacity="0.6"/>
  <line x1="250" y1="176" x2="250" y2="198" stroke="#2d3440" stroke-width="0.5" opacity="0.6"/>
  <line x1="280" y1="176" x2="280" y2="198" stroke="#2d3440" stroke-width="0.5" opacity="0.6"/>
  <line x1="310" y1="176" x2="310" y2="198" stroke="#2d3440" stroke-width="0.5" opacity="0.6"/>
  <line x1="340" y1="176" x2="340" y2="198" stroke="#2d3440" stroke-width="0.5" opacity="0.6"/>
  <line x1="370" y1="176" x2="370" y2="198" stroke="#2d3440" stroke-width="0.5" opacity="0.6"/>
  <line x1="400" y1="176" x2="400" y2="198" stroke="#2d3440" stroke-width="0.5" opacity="0.6"/>
  <line x1="430" y1="176" x2="430" y2="198" stroke="#2d3440" stroke-width="0.5" opacity="0.6"/>
  <line x1="460" y1="176" x2="460" y2="198" stroke="#2d3440" stroke-width="0.5" opacity="0.6"/>
  <line x1="490" y1="176" x2="490" y2="198" stroke="#2d3440" stroke-width="0.5" opacity="0.6"/>
  <line x1="520" y1="176" x2="520" y2="198" stroke="#2d3440" stroke-width="0.5" opacity="0.6"/>
  <line x1="550" y1="176" x2="550" y2="198" stroke="#2d3440" stroke-width="0.5" opacity="0.6"/>
  <line x1="580" y1="176" x2="580" y2="198" stroke="#2d3440" stroke-width="0.5" opacity="0.6"/>
  <line x1="610" y1="176" x2="610" y2="198" stroke="#2d3440" stroke-width="0.5" opacity="0.6"/>
  <circle cx="476.1" cy="187" r="4.5" fill="#4A90B8" opacity="0.85"/>
  <circle cx="549.2" cy="187" r="4.5" fill="#4A90B8" opacity="0.85"/>
  <circle cx="51.4" cy="187" r="4.5" fill="#4A90B8" opacity="0.85"/>
  <circle cx="266.6" cy="187" r="4.5" fill="#4A90B8" opacity="0.85"/>
  <circle cx="514.9" cy="187" r="4.5" fill="#4A90B8" opacity="0.85"/>
  <circle cx="118.6" cy="187" r="4.5" fill="#4A90B8" opacity="0.85"/>
  <circle cx="335.9" cy="187" r="4.5" fill="#4A90B8" opacity="0.85"/>
  <circle cx="597.3" cy="187" r="4.5" fill="#4A90B8" opacity="0.85"/>
  <circle cx="571.1" cy="187" r="4.5" fill="#4A90B8" opacity="0.85"/>
  <circle cx="221.4" cy="187" r="4.5" fill="#4A90B8" opacity="0.85"/>
  <circle cx="376.8" cy="187" r="4.5" fill="#4A90B8" opacity="0.85"/>
  <circle cx="78.7" cy="187" r="4.5" fill="#4A90B8" opacity="0.85"/>
  <circle cx="612.4" cy="187" r="4.5" fill="#4A90B8" opacity="0.85"/>
  <circle cx="407.0" cy="187" r="4.5" fill="#4A90B8" opacity="0.85"/>
  <circle cx="133.0" cy="187" r="4.5" fill="#4A90B8" opacity="0.85"/>
  <circle cx="168.3" cy="187" r="4.5" fill="#4A90B8" opacity="0.85"/>
  <circle cx="299.1" cy="187" r="4.5" fill="#4A90B8" opacity="0.85"/>
  <circle cx="350.9" cy="187" r="4.5" fill="#4A90B8" opacity="0.85"/>
  <circle cx="441.1" cy="187" r="4.5" fill="#4A90B8" opacity="0.85"/>
  <circle cx="196.3" cy="187" r="4.5" fill="#4A90B8" opacity="0.85"/>
  <text class="title" x="40" y="234" fill="#e8e6e3">Sobol — quasi-Monte Carlo</text>
  <text class="sub" x="40" y="250">Each point bisects the largest gap</text>
  <rect x="40" y="258" width="600" height="30" rx="6" fill="none" stroke="#2d3440" stroke-width="0.5"/>
  <circle cx="340.0" cy="273" r="4.5" fill="#4A8B6F" opacity="0.85"/>
  <circle cx="190.0" cy="273" r="4.5" fill="#4A8B6F" opacity="0.85"/>
  <circle cx="490.0" cy="273" r="4.5" fill="#4A8B6F" opacity="0.85"/>
  <circle cx="115.0" cy="273" r="4.5" fill="#4A8B6F" opacity="0.85"/>
  <circle cx="415.0" cy="273" r="4.5" fill="#4A8B6F" opacity="0.85"/>
  <circle cx="265.0" cy="273" r="4.5" fill="#4A8B6F" opacity="0.85"/>
  <circle cx="565.0" cy="273" r="4.5" fill="#4A8B6F" opacity="0.85"/>
  <circle cx="77.5" cy="273" r="4.5" fill="#4A8B6F" opacity="0.85"/>
  <circle cx="377.5" cy="273" r="4.5" fill="#4A8B6F" opacity="0.85"/>
  <circle cx="227.5" cy="273" r="4.5" fill="#4A8B6F" opacity="0.85"/>
  <circle cx="527.5" cy="273" r="4.5" fill="#4A8B6F" opacity="0.85"/>
  <circle cx="152.5" cy="273" r="4.5" fill="#4A8B6F" opacity="0.85"/>
  <circle cx="452.5" cy="273" r="4.5" fill="#4A8B6F" opacity="0.85"/>
  <circle cx="302.5" cy="273" r="4.5" fill="#4A8B6F" opacity="0.85"/>
  <circle cx="602.5" cy="273" r="4.5" fill="#4A8B6F" opacity="0.85"/>
  <circle cx="58.8" cy="273" r="4.5" fill="#4A8B6F" opacity="0.85"/>
  <circle cx="358.8" cy="273" r="4.5" fill="#4A8B6F" opacity="0.85"/>
  <circle cx="208.8" cy="273" r="4.5" fill="#4A8B6F" opacity="0.85"/>
  <circle cx="508.8" cy="273" r="4.5" fill="#4A8B6F" opacity="0.85"/>
  <circle cx="133.8" cy="273" r="4.5" fill="#4A8B6F" opacity="0.85"/>
  <text class="title" x="40" y="320" fill="#e8e6e3">Halton — quasi-Monte Carlo</text>
  <text class="sub" x="40" y="336">Van der Corput: binary digit reversal</text>
  <rect x="40" y="344" width="600" height="30" rx="6" fill="none" stroke="#2d3440" stroke-width="0.5"/>
  <circle cx="340.0" cy="359" r="4.5" fill="#B87333" opacity="0.85"/>
  <circle cx="190.0" cy="359" r="4.5" fill="#B87333" opacity="0.85"/>
  <circle cx="490.0" cy="359" r="4.5" fill="#B87333" opacity="0.85"/>
  <circle cx="115.0" cy="359" r="4.5" fill="#B87333" opacity="0.85"/>
  <circle cx="415.0" cy="359" r="4.5" fill="#B87333" opacity="0.85"/>
  <circle cx="265.0" cy="359" r="4.5" fill="#B87333" opacity="0.85"/>
  <circle cx="565.0" cy="359" r="4.5" fill="#B87333" opacity="0.85"/>
  <circle cx="77.5" cy="359" r="4.5" fill="#B87333" opacity="0.85"/>
  <circle cx="377.5" cy="359" r="4.5" fill="#B87333" opacity="0.85"/>
  <circle cx="227.5" cy="359" r="4.5" fill="#B87333" opacity="0.85"/>
  <circle cx="527.5" cy="359" r="4.5" fill="#B87333" opacity="0.85"/>
  <circle cx="152.5" cy="359" r="4.5" fill="#B87333" opacity="0.85"/>
  <circle cx="452.5" cy="359" r="4.5" fill="#B87333" opacity="0.85"/>
  <circle cx="302.5" cy="359" r="4.5" fill="#B87333" opacity="0.85"/>
  <circle cx="602.5" cy="359" r="4.5" fill="#B87333" opacity="0.85"/>
  <circle cx="58.8" cy="359" r="4.5" fill="#B87333" opacity="0.85"/>
  <circle cx="358.8" cy="359" r="4.5" fill="#B87333" opacity="0.85"/>
  <circle cx="208.8" cy="359" r="4.5" fill="#B87333" opacity="0.85"/>
  <circle cx="508.8" cy="359" r="4.5" fill="#B87333" opacity="0.85"/>
  <circle cx="133.8" cy="359" r="4.5" fill="#B87333" opacity="0.85"/>
</svg>