<svg width="680" height="686" viewBox="0 0 680 686" xmlns="http://www.w3.org/2000/svg" style="font-family: -apple-system, 'Segoe UI', sans-serif;">
  <style>
    text { fill: #c8c6c2; }
    .title { font-size: 14px; font-weight: 500; }
    .sub { font-size: 12px; fill: #8b9298; }
  </style>
  <rect width="680" height="686" fill="#0f1419" rx="8"/>
  <text class="title" x="340" y="28" text-anchor="middle" fill="#e8e6e3">Sampling methods — 2D comparison</text>
  <rect x="50" y="48" width="250" height="250" rx="8" fill="none" stroke="#2d3440" stroke-width="0.5"/>
  <circle cx="207" cy="280" r="3.5" fill="#D85A30" opacity="0.85"/>
  <circle cx="124" cy="236" r="3.5" fill="#D85A30" opacity="0.85"/>
  <circle cx="228" cy="133" r="3.5" fill="#D85A30" opacity="0.85"/>
  <circle cx="264" cy="266" r="3.5" fill="#D85A30" opacity="0.85"/>
  <circle cx="157" cy="279" r="3.5" fill="#D85A30" opacity="0.85"/>
  <circle cx="111" cy="172" r="3.5" fill="#D85A30" opacity="0.85"/>
  <circle cx="68" cy="241" r="3.5" fill="#D85A30" opacity="0.85"/>
  <circle cx="209" cy="163" r="3.5" fill="#D85A30" opacity="0.85"/>
  <circle cx="112" cy="153" r="3.5" fill="#D85A30" opacity="0.85"/>
  <circle cx="245" cy="285" r="3.5" fill="#D85A30" opacity="0.85"/>
  <circle cx="244" cy="128" r="3.5" fill="#D85A30" opacity="0.85"/>
  <circle cx="139" cy="251" r="3.5" fill="#D85A30" opacity="0.85"/>
  <circle cx="278" cy="210" r="3.5" fill="#D85A30" opacity="0.85"/>
  <circle cx="83" cy="264" r="3.5" fill="#D85A30" opacity="0.85"/>
  <circle cx="254" cy="150" r="3.5" fill="#D85A30" opacity="0.85"/>
  <circle cx="244" cy="121" r="3.5" fill="#D85A30" opacity="0.85"/>
  <circle cx="183" cy="66" r="3.5" fill="#D85A30" opacity="0.85"/>
  <circle cx="148" cy="161" r="3.5" fill="#D85A30" opacity="0.85"/>
  <circle cx="249" cy="146" r="3.5" fill="#D85A30" opacity="0.85"/>
  <circle cx="257" cy="156" r="3.5" fill="#D85A30" opacity="0.85"/>
  <circle cx="221" cy="276" r="3.5" fill="#D85A30" opacity="0.85"/>
  <circle cx="114" cy="221" r="3.5" fill="#D85A30" opacity="0.85"/>
  <circle cx="80" cy="233" r="3.5" fill="#D85A30" opacity="0.85"/>
  <circle cx="85" cy="223" r="3.5" fill="#D85A30" opacity="0.85"/>
  <circle cx="206" cy="204" r="3.5" fill="#D85A30" opacity="0.85"/>
  <text class="title" x="175" y="316" text-anchor="middle" fill="#e8e6e3">SAA (N = 25)</text>
  <text class="sub" x="175" y="332" text-anchor="middle">Random clumps, empty corners</text>
  <rect x="380" y="48" width="250" height="250" rx="8" fill="none" stroke="#2d3440" stroke-width="0.5"/>
  <line x1="401" y1="60" x2="401" y2="286" stroke="#2d3440" stroke-width="0.5" opacity="0.4"/>
  <line x1="392" y1="69" x2="618" y2="69" stroke="#2d3440" stroke-width="0.5" opacity="0.4"/>
  <line x1="410" y1="60" x2="410" y2="286" stroke="#2d3440" stroke-width="0.5" opacity="0.4"/>
  <line x1="392" y1="78" x2="618" y2="78" stroke="#2d3440" stroke-width="0.5" opacity="0.4"/>
  <line x1="419" y1="60" x2="419" y2="286" stroke="#2d3440" stroke-width="0.5" opacity="0.4"/>
  <line x1="392" y1="87" x2="618" y2="87" stroke="#2d3440" stroke-width="0.5" opacity="0.4"/>
  <line x1="428" y1="60" x2="428" y2="286" stroke="#2d3440" stroke-width="0.5" opacity="0.4"/>
  <line x1="392" y1="96" x2="618" y2="96" stroke="#2d3440" stroke-width="0.5" opacity="0.4"/>
  <line x1="437" y1="60" x2="437" y2="286" stroke="#2d3440" stroke-width="0.5" opacity="0.4"/>
  <line x1="392" y1="105" x2="618" y2="105" stroke="#2d3440" stroke-width="0.5" opacity="0.4"/>
  <line x1="446" y1="60" x2="446" y2="286" stroke="#2d3440" stroke-width="0.5" opacity="0.4"/>
  <line x1="392" y1="114" x2="618" y2="114" stroke="#2d3440" stroke-width="0.5" opacity="0.4"/>
  <line x1="455" y1="60" x2="455" y2="286" stroke="#2d3440" stroke-width="0.5" opacity="0.4"/>
  <line x1="392" y1="123" x2="618" y2="123" stroke="#2d3440" stroke-width="0.5" opacity="0.4"/>
  <line x1="464" y1="60" x2="464" y2="286" stroke="#2d3440" stroke-width="0.5" opacity="0.4"/>
  <line x1="392" y1="132" x2="618" y2="132" stroke="#2d3440" stroke-width="0.5" opacity="0.4"/>
  <line x1="473" y1="60" x2="473" y2="286" stroke="#2d3440" stroke-width="0.5" opacity="0.4"/>
  <line x1="392" y1="141" x2="618" y2="141" stroke="#2d3440" stroke-width="0.5" opacity="0.4"/>
  <line x1="482" y1="60" x2="482" y2="286" stroke="#2d3440" stroke-width="0.5" opacity="0.4"/>
  <line x1="392" y1="150" x2="618" y2="150" stroke="#2d3440" stroke-width="0.5" opacity="0.4"/>
  <line x1="491" y1="60" x2="491" y2="286" stroke="#2d3440" stroke-width="0.5" opacity="0.4"/>
  <line x1="392" y1="159" x2="618" y2="159" stroke="#2d3440" stroke-width="0.5" opacity="0.4"/>
  <line x1="500" y1="60" x2="500" y2="286" stroke="#2d3440" stroke-width="0.5" opacity="0.4"/>
  <line x1="392" y1="168" x2="618" y2="168" stroke="#2d3440" stroke-width="0.5" opacity="0.4"/>
  <line x1="510" y1="60" x2="510" y2="286" stroke="#2d3440" stroke-width="0.5" opacity="0.4"/>
  <line x1="392" y1="178" x2="618" y2="178" stroke="#2d3440" stroke-width="0.5" opacity="0.4"/>
  <line x1="519" y1="60" x2="519" y2="286" stroke="#2d3440" stroke-width="0.5" opacity="0.4"/>
  <line x1="392" y1="187" x2="618" y2="187" stroke="#2d3440" stroke-width="0.5" opacity="0.4"/>
  <line x1="528" y1="60" x2="528" y2="286" stroke="#2d3440" stroke-width="0.5" opacity="0.4"/>
  <line x1="392" y1="196" x2="618" y2="196" stroke="#2d3440" stroke-width="0.5" opacity="0.4"/>
  <line x1="537" y1="60" x2="537" y2="286" stroke="#2d3440" stroke-width="0.5" opacity="0.4"/>
  <line x1="392" y1="205" x2="618" y2="205" stroke="#2d3440" stroke-width="0.5" opacity="0.4"/>
  <line x1="546" y1="60" x2="546" y2="286" stroke="#2d3440" stroke-width="0.5" opacity="0.4"/>
  <line x1="392" y1="214" x2="618" y2="214" stroke="#2d3440" stroke-width="0.5" opacity="0.4"/>
  <line x1="555" y1="60" x2="555" y2="286" stroke="#2d3440" stroke-width="0.5" opacity="0.4"/>
  <line x1="392" y1="223" x2="618" y2="223" stroke="#2d3440" stroke-width="0.5" opacity="0.4"/>
  <line x1="564" y1="60" x2="564" y2="286" stroke="#2d3440" stroke-width="0.5" opacity="0.4"/>
  <line x1="392" y1="232" x2="618" y2="232" stroke="#2d3440" stroke-width="0.5" opacity="0.4"/>
  <line x1="573" y1="60" x2="573" y2="286" stroke="#2d3440" stroke-width="0.5" opacity="0.4"/>
  <line x1="392" y1="241" x2="618" y2="241" stroke="#2d3440" stroke-width="0.5" opacity="0.4"/>
  <line x1="582" y1="60" x2="582" y2="286" stroke="#2d3440" stroke-width="0.5" opacity="0.4"/>
  <line x1="392" y1="250" x2="618" y2="250" stroke="#2d3440" stroke-width="0.5" opacity="0.4"/>
  <line x1="591" y1="60" x2="591" y2="286" stroke="#2d3440" stroke-width="0.5" opacity="0.4"/>
  <line x1="392" y1="259" x2="618" y2="259" stroke="#2d3440" stroke-width="0.5" opacity="0.4"/>
  <line x1="600" y1="60" x2="600" y2="286" stroke="#2d3440" stroke-width="0.5" opacity="0.4"/>
  <line x1="392" y1="268" x2="618" y2="268" stroke="#2d3440" stroke-width="0.5" opacity="0.4"/>
  <line x1="609" y1="60" x2="609" y2="286" stroke="#2d3440" stroke-width="0.5" opacity="0.4"/>
  <line x1="392" y1="277" x2="618" y2="277" stroke="#2d3440" stroke-width="0.5" opacity="0.4"/>
  <circle cx="599" cy="102" r="3.5" fill="#4A90B8" opacity="0.85"/>
  <circle cx="506" cy="60" r="3.5" fill="#4A90B8" opacity="0.85"/>
  <circle cx="559" cy="144" r="3.5" fill="#4A90B8" opacity="0.85"/>
  <circle cx="444" cy="238" r="3.5" fill="#4A90B8" opacity="0.85"/>
  <circle cx="527" cy="126" r="3.5" fill="#4A90B8" opacity="0.85"/>
  <circle cx="428" cy="260" r="3.5" fill="#4A90B8" opacity="0.85"/>
  <circle cx="446" cy="79" r="3.5" fill="#4A90B8" opacity="0.85"/>
  <circle cx="590" cy="268" r="3.5" fill="#4A90B8" opacity="0.85"/>
  <circle cx="476" cy="96" r="3.5" fill="#4A90B8" opacity="0.85"/>
  <circle cx="534" cy="135" r="3.5" fill="#4A90B8" opacity="0.85"/>
  <circle cx="573" cy="224" r="3.5" fill="#4A90B8" opacity="0.85"/>
  <circle cx="400" cy="119" r="3.5" fill="#4A90B8" opacity="0.85"/>
  <circle cx="607" cy="283" r="3.5" fill="#4A90B8" opacity="0.85"/>
  <circle cx="460" cy="157" r="3.5" fill="#4A90B8" opacity="0.85"/>
  <circle cx="612" cy="204" r="3.5" fill="#4A90B8" opacity="0.85"/>
  <circle cx="471" cy="110" r="3.5" fill="#4A90B8" opacity="0.85"/>
  <circle cx="568" cy="213" r="3.5" fill="#4A90B8" opacity="0.85"/>
  <circle cx="407" cy="186" r="3.5" fill="#4A90B8" opacity="0.85"/>
  <circle cx="545" cy="193" r="3.5" fill="#4A90B8" opacity="0.85"/>
  <circle cx="549" cy="172" r="3.5" fill="#4A90B8" opacity="0.85"/>
  <circle cx="482" cy="167" r="3.5" fill="#4A90B8" opacity="0.85"/>
  <circle cx="422" cy="258" r="3.5" fill="#4A90B8" opacity="0.85"/>
  <circle cx="517" cy="249" r="3.5" fill="#4A90B8" opacity="0.85"/>
  <circle cx="497" cy="71" r="3.5" fill="#4A90B8" opacity="0.85"/>
  <circle cx="419" cy="222" r="3.5" fill="#4A90B8" opacity="0.85"/>
  <text class="title" x="505" y="316" text-anchor="middle" fill="#e8e6e3">LHS (N = 25)</text>
  <text class="sub" x="505" y="332" text-anchor="middle">One sample per row and column</text>
  <rect x="50" y="362" width="250" height="250" rx="8" fill="none" stroke="#2d3440" stroke-width="0.5"/>
  <circle cx="175" cy="525" r="3.5" fill="#4A8B6F" opacity="0.85"/>
  <circle cx="118" cy="449" r="3.5" fill="#4A8B6F" opacity="0.85"/>
  <circle cx="232" cy="575" r="3.5" fill="#4A8B6F" opacity="0.85"/>
  <circle cx="90" cy="500" r="3.5" fill="#4A8B6F" opacity="0.85"/>
  <circle cx="203" cy="424" r="3.5" fill="#4A8B6F" opacity="0.85"/>
  <circle cx="147" cy="550" r="3.5" fill="#4A8B6F" opacity="0.85"/>
  <circle cx="260" cy="474" r="3.5" fill="#4A8B6F" opacity="0.85"/>
  <circle cx="76" cy="399" r="3.5" fill="#4A8B6F" opacity="0.85"/>
  <circle cx="189" cy="592" r="3.5" fill="#4A8B6F" opacity="0.85"/>
  <circle cx="133" cy="516" r="3.5" fill="#4A8B6F" opacity="0.85"/>
  <circle cx="246" cy="441" r="3.5" fill="#4A8B6F" opacity="0.85"/>
  <circle cx="104" cy="567" r="3.5" fill="#4A8B6F" opacity="0.85"/>
  <circle cx="217" cy="491" r="3.5" fill="#4A8B6F" opacity="0.85"/>
  <circle cx="161" cy="416" r="3.5" fill="#4A8B6F" opacity="0.85"/>
  <circle cx="274" cy="541" r="3.5" fill="#4A8B6F" opacity="0.85"/>
  <circle cx="69" cy="466" r="3.5" fill="#4A8B6F" opacity="0.85"/>
  <circle cx="182" cy="391" r="3.5" fill="#4A8B6F" opacity="0.85"/>
  <circle cx="126" cy="583" r="3.5" fill="#4A8B6F" opacity="0.85"/>
  <circle cx="239" cy="508" r="3.5" fill="#4A8B6F" opacity="0.85"/>
  <circle cx="97" cy="433" r="3.5" fill="#4A8B6F" opacity="0.85"/>
  <circle cx="210" cy="558" r="3.5" fill="#4A8B6F" opacity="0.85"/>
  <circle cx="154" cy="483" r="3.5" fill="#4A8B6F" opacity="0.85"/>
  <circle cx="267" cy="407" r="3.5" fill="#4A8B6F" opacity="0.85"/>
  <circle cx="83" cy="533" r="3.5" fill="#4A8B6F" opacity="0.85"/>
  <circle cx="196" cy="458" r="3.5" fill="#4A8B6F" opacity="0.85"/>
  <circle cx="140" cy="382" r="3.5" fill="#4A8B6F" opacity="0.85"/>
  <circle cx="253" cy="597" r="3.5" fill="#4A8B6F" opacity="0.85"/>
  <circle cx="111" cy="522" r="3.5" fill="#4A8B6F" opacity="0.85"/>
  <circle cx="224" cy="447" r="3.5" fill="#4A8B6F" opacity="0.85"/>
  <circle cx="168" cy="572" r="3.5" fill="#4A8B6F" opacity="0.85"/>
  <circle cx="281" cy="497" r="3.5" fill="#4A8B6F" opacity="0.85"/>
  <circle cx="66" cy="421" r="3.5" fill="#4A8B6F" opacity="0.85"/>
  <text class="title" x="175" y="630" text-anchor="middle" fill="#e8e6e3">Sobol (N = 32)</text>
  <text class="sub" x="175" y="646" text-anchor="middle">Low-discrepancy net</text>
  <rect x="380" y="362" width="250" height="250" rx="8" fill="none" stroke="#2d3440" stroke-width="0.5"/>
  <circle cx="505" cy="525" r="3.5" fill="#B87333" opacity="0.85"/>
  <circle cx="448" cy="449" r="3.5" fill="#B87333" opacity="0.85"/>
  <circle cx="562" cy="575" r="3.5" fill="#B87333" opacity="0.85"/>
  <circle cx="420" cy="500" r="3.5" fill="#B87333" opacity="0.85"/>
  <circle cx="533" cy="424" r="3.5" fill="#B87333" opacity="0.85"/>
  <circle cx="477" cy="550" r="3.5" fill="#B87333" opacity="0.85"/>
  <circle cx="590" cy="474" r="3.5" fill="#B87333" opacity="0.85"/>
  <circle cx="406" cy="399" r="3.5" fill="#B87333" opacity="0.85"/>
  <circle cx="519" cy="592" r="3.5" fill="#B87333" opacity="0.85"/>
  <circle cx="463" cy="516" r="3.5" fill="#B87333" opacity="0.85"/>
  <circle cx="576" cy="441" r="3.5" fill="#B87333" opacity="0.85"/>
  <circle cx="434" cy="567" r="3.5" fill="#B87333" opacity="0.85"/>
  <circle cx="547" cy="491" r="3.5" fill="#B87333" opacity="0.85"/>
  <circle cx="491" cy="416" r="3.5" fill="#B87333" opacity="0.85"/>
  <circle cx="604" cy="541" r="3.5" fill="#B87333" opacity="0.85"/>
  <circle cx="399" cy="466" r="3.5" fill="#B87333" opacity="0.85"/>
  <circle cx="512" cy="391" r="3.5" fill="#B87333" opacity="0.85"/>
  <circle cx="456" cy="583" r="3.5" fill="#B87333" opacity="0.85"/>
  <circle cx="569" cy="508" r="3.5" fill="#B87333" opacity="0.85"/>
  <circle cx="427" cy="433" r="3.5" fill="#B87333" opacity="0.85"/>
  <circle cx="540" cy="558" r="3.5" fill="#B87333" opacity="0.85"/>
  <circle cx="484" cy="483" r="3.5" fill="#B87333" opacity="0.85"/>
  <circle cx="597" cy="407" r="3.5" fill="#B87333" opacity="0.85"/>
  <circle cx="413" cy="533" r="3.5" fill="#B87333" opacity="0.85"/>
  <circle cx="526" cy="458" r="3.5" fill="#B87333" opacity="0.85"/>
  <text class="title" x="505" y="630" text-anchor="middle" fill="#e8e6e3">Halton (N = 25)</text>
  <text class="sub" x="505" y="646" text-anchor="middle">Bases 2 and 3, digit reversal</text>
</svg>